# xmcd CD database file
#
# Track frame offsets:
#	150
#	13298
#	28854
#	43174
#	67954
#	82820
#	97077
#	112361
#	136171
#	151644
#	164874
#	180132
#	192838
#
# Disc length: 2754 seconds
#
# Revision: 0
# Processed by: cddbd v1.5.1PL2 Copyright (c) Steve Scherf et al.
# Submitted via: CDex 1.51
#
DISCID=aa0ac00d
DTITLE=Jeff Gibson - Born For The Saddle
DYEAR=2000
DGENRE=Country
TTITLE0=Three Horse Dray
TTITLE1=Born For The Saddle
TTITLE2=Wave Jackson The Legend
TTITLE3=Clara Waters
TTITLE4=Australia Is
TTITLE5=In Days Of Old Khancoban
TTITLE6=Relics Of The Past
TTITLE7=Picture Of The Bush
TTITLE8=The Bushman's Song
TTITLE9=You Can Never Do Wrong In A Mother's Eyes
TTITLE10=Old Time Photo
TTITLE11=No Indispensable Man
TTITLE12=My Old Cooloolah Home
EXTD=YEAR: 2000
EXTT0=
EXTT1=
EXTT2=
EXTT3=
EXTT4=
EXTT5=
EXTT6=
EXTT7=
EXTT8=
EXTT9=
EXTT10=
EXTT11=
EXTT12=
PLAYORDER=
